# Blender 4.0.2
# www.blender.org
mtllib hemisphere_with_normals.mtl
o hemisphere
v 0.000000 1.000000 -0.000000
v 0.000000 0.980785 0.195090
v 0.195090 0.980785 -0.000000
v 0.000000 0.923880 0.382683
v 0.198757 0.959683 0.198757
v 0.382683 0.923880 -0.000000
v 0.000000 0.831470 0.555570
v 0.208847 0.890320 0.404615
v 0.000000 0.707107 0.707107
v 0.211325 0.788675 0.577350
v 0.408248 0.816497 0.408248
v 0.404615 0.890320 0.208847
v 0.555570 0.831470 -0.000000
v 0.577350 0.788675 0.211325
v 0.707107 0.707107 -0.000000
v 0.000000 0.555570 0.831470
v 0.211325 0.577350 0.788675
v 0.000000 0.382683 0.923880
v 0.208847 0.404615 0.890320
v 0.408248 0.408248 0.816497
v 0.000000 0.195090 0.980785
v 0.198757 0.198757 0.959683
v 0.000000 0.000000 1.000000
v 0.195090 0.000000 0.980785
v 0.382683 0.000000 0.923880
v 0.404615 0.208847 0.890320
v 0.577350 0.211325 0.788675
v 0.555570 0.000000 0.831470
v 0.707107 0.000000 0.707107
v 0.788675 0.577350 0.211325
v 0.639602 0.639602 0.426401
v 0.816497 0.408248 0.408248
v 0.426401 0.639602 0.639602
v 0.639602 0.426401 0.639602
v 0.788675 0.211325 0.577350
v 0.831470 0.555570 -0.000000
v 0.890320 0.404615 0.208847
v 0.923880 0.382683 -0.000000
v 0.890320 0.208847 0.404615
v 0.831470 0.000000 0.555570
v 0.923880 0.000000 0.382683
v 0.959683 0.198757 0.198757
v 0.980785 0.195090 -0.000000
v 0.980785 0.000000 0.195090
v 1.000000 0.000000 0.000000
v -1.000000 0.000000 0.000000
v -0.980785 0.000000 0.195090
v -0.980785 0.195090 -0.000000
v -0.923880 0.000000 0.382683
v -0.959683 0.198757 0.198757
v -0.923880 0.382683 -0.000000
v -0.831470 0.000000 0.555570
v -0.890320 0.208847 0.404615
v -0.707107 0.000000 0.707107
v -0.788675 0.211325 0.577350
v -0.816497 0.408248 0.408248
v -0.890320 0.404615 0.208847
v -0.831470 0.555570 -0.000000
v -0.788675 0.577350 0.211325
v -0.707107 0.707107 -0.000000
v -0.555570 0.000000 0.831470
v -0.577350 0.211325 0.788675
v -0.382683 0.000000 0.923880
v -0.404615 0.208847 0.890320
v -0.408248 0.408248 0.816497
v -0.195090 0.000000 0.980785
v -0.198757 0.198757 0.959683
v -0.208847 0.404615 0.890320
v -0.211325 0.577350 0.788675
v -0.577350 0.788675 0.211325
v -0.639602 0.639602 0.426401
v -0.408248 0.816497 0.408248
v -0.639602 0.426401 0.639602
v -0.426401 0.639602 0.639602
v -0.211325 0.788675 0.577350
v -0.555570 0.831470 -0.000000
v -0.404615 0.890320 0.208847
v -0.382683 0.923880 -0.000000
v -0.208847 0.890320 0.404615
v -0.198757 0.959683 0.198757
v -0.195090 0.980785 -0.000000
v 0.000000 -1.000000 0.000000
v 0.000000 -0.980785 0.195090
v -0.195090 -0.980785 0.000000
v 0.000000 -0.923880 0.382683
v -0.198757 -0.959683 0.198757
v -0.382683 -0.923880 0.000000
v 0.000000 -0.831470 0.555570
v -0.208847 -0.890320 0.404615
v 0.000000 -0.707107 0.707107
v -0.211325 -0.788675 0.577350
v -0.408248 -0.816497 0.408248
v -0.404615 -0.890320 0.208847
v -0.555570 -0.831470 0.000000
v -0.577350 -0.788675 0.211325
v -0.707107 -0.707107 0.000000
v 0.000000 -0.555570 0.831470
v -0.211325 -0.577350 0.788675
v 0.000000 -0.382683 0.923880
v -0.208847 -0.404615 0.890320
v -0.408248 -0.408248 0.816497
v 0.000000 -0.195090 0.980785
v -0.198757 -0.198757 0.959683
v -0.404615 -0.208847 0.890320
v -0.577350 -0.211325 0.788675
v -0.788675 -0.577350 0.211325
v -0.639602 -0.639602 0.426401
v -0.816497 -0.408248 0.408248
v -0.426401 -0.639602 0.639602
v -0.639602 -0.426401 0.639602
v -0.788675 -0.211325 0.577350
v -0.831470 -0.555570 0.000000
v -0.890320 -0.404615 0.208847
v -0.923880 -0.382683 0.000000
v -0.890320 -0.208847 0.404615
v -0.959683 -0.198757 0.198757
v -0.980785 -0.195090 0.000000
v 0.980785 -0.195090 0.000000
v 0.959683 -0.198757 0.198757
v 0.923880 -0.382683 0.000000
v 0.890320 -0.208847 0.404615
v 0.788675 -0.211325 0.577350
v 0.816497 -0.408248 0.408248
v 0.890320 -0.404615 0.208847
v 0.831470 -0.555570 0.000000
v 0.788675 -0.577350 0.211325
v 0.707107 -0.707107 0.000000
v 0.577350 -0.211325 0.788675
v 0.404615 -0.208847 0.890320
v 0.408248 -0.408248 0.816497
v 0.198757 -0.198757 0.959683
v 0.208847 -0.404615 0.890320
v 0.211325 -0.577350 0.788675
v 0.577350 -0.788675 0.211325
v 0.639602 -0.639602 0.426401
v 0.408248 -0.816497 0.408248
v 0.639602 -0.426401 0.639602
v 0.426401 -0.639602 0.639602
v 0.211325 -0.788675 0.577350
v 0.555570 -0.831470 0.000000
v 0.404615 -0.890320 0.208847
v 0.382683 -0.923880 0.000000
v 0.208847 -0.890320 0.404615
v 0.198757 -0.959683 0.198757
v 0.195090 -0.980785 0.000000
vn 0.0976 0.9904 0.0976
vn 0.0958 0.9525 0.2889
vn 0.1031 0.9893 0.1031
vn 0.2889 0.9525 0.0958
vn 0.0918 0.8782 0.4694
vn 0.0908 0.7698 0.6318
vn 0.1216 0.8562 0.5021
vn 0.2966 0.8249 0.4812
vn 0.3118 0.9427 0.1187
vn 0.1187 0.9427 0.3118
vn 0.2924 0.9105 0.2924
vn 0.3234 0.8893 0.3234
vn 0.4694 0.8782 0.0918
vn 0.4812 0.8249 0.2966
vn 0.5021 0.8562 0.1216
vn 0.6318 0.7698 0.0908
vn 0.0908 0.6318 0.7698
vn 0.0918 0.4694 0.8782
vn 0.1216 0.5021 0.8562
vn 0.2966 0.4812 0.8249
vn 0.0958 0.2889 0.9525
vn 0.0976 0.0976 0.9904
vn 0.1031 0.1031 0.9893
vn 0.2889 0.0958 0.9525
vn 0.3234 0.3234 0.8893
vn 0.1187 0.3118 0.9427
vn 0.2924 0.2924 0.9105
vn 0.3118 0.1187 0.9427
vn 0.4812 0.2966 0.8249
vn 0.4694 0.0918 0.8782
vn 0.5021 0.1216 0.8562
vn 0.6318 0.0908 0.7698
vn 0.6981 0.6981 0.1592
vn 0.5476 0.7535 0.3638
vn 0.6799 0.6799 0.2745
vn 0.7535 0.5476 0.3638
vn 0.3638 0.7535 0.5476
vn 0.1592 0.6981 0.6981
vn 0.2745 0.6799 0.6799
vn 0.3638 0.5476 0.7535
vn 0.7062 0.5007 0.5007
vn 0.5007 0.7062 0.5007
vn 0.5774 0.5774 0.5774
vn 0.5007 0.5007 0.7062
vn 0.7535 0.3638 0.5476
vn 0.5476 0.3638 0.7535
vn 0.6799 0.2745 0.6799
vn 0.6981 0.1592 0.6981
vn 0.7698 0.6318 0.0908
vn 0.8249 0.4812 0.2966
vn 0.8562 0.5021 0.1216
vn 0.8782 0.4694 0.0918
vn 0.8249 0.2966 0.4812
vn 0.7698 0.0908 0.6318
vn 0.8562 0.1216 0.5021
vn 0.8782 0.0918 0.4694
vn 0.9427 0.3118 0.1187
vn 0.8893 0.3234 0.3234
vn 0.9105 0.2924 0.2924
vn 0.9427 0.1187 0.3118
vn 0.9525 0.2889 0.0958
vn 0.9525 0.0958 0.2889
vn 0.9893 0.1031 0.1031
vn 0.9904 0.0976 0.0976
vn -0.9904 0.0976 0.0976
vn -0.9525 0.0958 0.2889
vn -0.9893 0.1031 0.1031
vn -0.9525 0.2889 0.0958
vn -0.8782 0.0918 0.4694
vn -0.7698 0.0908 0.6318
vn -0.8562 0.1216 0.5021
vn -0.8249 0.2966 0.4812
vn -0.9427 0.3118 0.1187
vn -0.9427 0.1187 0.3118
vn -0.9105 0.2924 0.2924
vn -0.8893 0.3234 0.3234
vn -0.8782 0.4694 0.0918
vn -0.8249 0.4812 0.2966
vn -0.8562 0.5021 0.1216
vn -0.7698 0.6318 0.0908
vn -0.6318 0.0908 0.7698
vn -0.4694 0.0918 0.8782
vn -0.5021 0.1216 0.8562
vn -0.4812 0.2966 0.8249
vn -0.2889 0.0958 0.9525
vn -0.0976 0.0976 0.9904
vn -0.1031 0.1031 0.9893
vn -0.0958 0.2889 0.9525
vn -0.3234 0.3234 0.8893
vn -0.3118 0.1187 0.9427
vn -0.2924 0.2924 0.9105
vn -0.1187 0.3118 0.9427
vn -0.2966 0.4812 0.8249
vn -0.0918 0.4694 0.8782
vn -0.1216 0.5021 0.8562
vn -0.0908 0.6318 0.7698
vn -0.6981 0.6981 0.1592
vn -0.7535 0.5476 0.3638
vn -0.6799 0.6799 0.2745
vn -0.5476 0.7535 0.3638
vn -0.7535 0.3638 0.5476
vn -0.6981 0.1592 0.6981
vn -0.6799 0.2745 0.6799
vn -0.5476 0.3638 0.7535
vn -0.5007 0.7062 0.5007
vn -0.7062 0.5007 0.5007
vn -0.5774 0.5774 0.5774
vn -0.5007 0.5007 0.7062
vn -0.3638 0.7535 0.5476
vn -0.3638 0.5476 0.7535
vn -0.2745 0.6799 0.6799
vn -0.1592 0.6981 0.6981
vn -0.6318 0.7698 0.0908
vn -0.4812 0.8249 0.2966
vn -0.5021 0.8562 0.1216
vn -0.4694 0.8782 0.0918
vn -0.2966 0.8249 0.4812
vn -0.0908 0.7698 0.6318
vn -0.1216 0.8562 0.5021
vn -0.0918 0.8782 0.4694
vn -0.3118 0.9427 0.1187
vn -0.3234 0.8893 0.3234
vn -0.2924 0.9105 0.2924
vn -0.1187 0.9427 0.3118
vn -0.2889 0.9525 0.0958
vn -0.0958 0.9525 0.2889
vn -0.1031 0.9893 0.1031
vn -0.0976 0.9904 0.0976
vn -0.0976 -0.9904 0.0976
vn -0.0958 -0.9525 0.2889
vn -0.1031 -0.9893 0.1031
vn -0.2889 -0.9525 0.0958
vn -0.0918 -0.8782 0.4694
vn -0.0908 -0.7698 0.6318
vn -0.1216 -0.8562 0.5021
vn -0.2966 -0.8249 0.4812
vn -0.3118 -0.9427 0.1187
vn -0.1187 -0.9427 0.3118
vn -0.2924 -0.9105 0.2924
vn -0.3234 -0.8893 0.3234
vn -0.4694 -0.8782 0.0918
vn -0.4812 -0.8249 0.2966
vn -0.5021 -0.8562 0.1216
vn -0.6318 -0.7698 0.0908
vn -0.0908 -0.6318 0.7698
vn -0.0918 -0.4694 0.8782
vn -0.1216 -0.5021 0.8562
vn -0.2966 -0.4812 0.8249
vn -0.0958 -0.2889 0.9525
vn -0.0976 -0.0976 0.9904
vn -0.1031 -0.1031 0.9893
vn -0.2889 -0.0958 0.9525
vn -0.3234 -0.3234 0.8893
vn -0.1187 -0.3118 0.9427
vn -0.2924 -0.2924 0.9105
vn -0.3118 -0.1187 0.9427
vn -0.4812 -0.2966 0.8249
vn -0.4694 -0.0918 0.8782
vn -0.5021 -0.1216 0.8562
vn -0.6318 -0.0908 0.7698
vn -0.6981 -0.6981 0.1592
vn -0.5476 -0.7535 0.3638
vn -0.6799 -0.6799 0.2745
vn -0.7535 -0.5476 0.3638
vn -0.3638 -0.7535 0.5476
vn -0.1592 -0.6981 0.6981
vn -0.2745 -0.6799 0.6799
vn -0.3638 -0.5476 0.7535
vn -0.7062 -0.5007 0.5007
vn -0.5007 -0.7062 0.5007
vn -0.5774 -0.5774 0.5774
vn -0.5007 -0.5007 0.7062
vn -0.7535 -0.3638 0.5476
vn -0.5476 -0.3638 0.7535
vn -0.6799 -0.2745 0.6799
vn -0.6981 -0.1592 0.6981
vn -0.7698 -0.6318 0.0908
vn -0.8249 -0.4812 0.2966
vn -0.8562 -0.5021 0.1216
vn -0.8782 -0.4694 0.0918
vn -0.8249 -0.2966 0.4812
vn -0.7698 -0.0908 0.6318
vn -0.8562 -0.1216 0.5021
vn -0.8782 -0.0918 0.4694
vn -0.9427 -0.3118 0.1187
vn -0.8893 -0.3234 0.3234
vn -0.9105 -0.2924 0.2924
vn -0.9427 -0.1187 0.3118
vn -0.9525 -0.2889 0.0958
vn -0.9525 -0.0958 0.2889
vn -0.9893 -0.1031 0.1031
vn -0.9904 -0.0976 0.0976
vn 0.9904 -0.0976 0.0976
vn 0.9525 -0.0958 0.2889
vn 0.9893 -0.1031 0.1031
vn 0.9525 -0.2889 0.0958
vn 0.8782 -0.0918 0.4694
vn 0.7698 -0.0908 0.6318
vn 0.8562 -0.1216 0.5021
vn 0.8249 -0.2966 0.4812
vn 0.9427 -0.3118 0.1187
vn 0.9427 -0.1187 0.3118
vn 0.9105 -0.2924 0.2924
vn 0.8893 -0.3234 0.3234
vn 0.8782 -0.4694 0.0918
vn 0.8249 -0.4812 0.2966
vn 0.8562 -0.5021 0.1216
vn 0.7698 -0.6318 0.0908
vn 0.6318 -0.0908 0.7698
vn 0.4694 -0.0918 0.8782
vn 0.5021 -0.1216 0.8562
vn 0.4812 -0.2966 0.8249
vn 0.2889 -0.0958 0.9525
vn 0.0976 -0.0976 0.9904
vn 0.1031 -0.1031 0.9893
vn 0.0958 -0.2889 0.9525
vn 0.3234 -0.3234 0.8893
vn 0.3118 -0.1187 0.9427
vn 0.2924 -0.2924 0.9105
vn 0.1187 -0.3118 0.9427
vn 0.2966 -0.4812 0.8249
vn 0.0918 -0.4694 0.8782
vn 0.1216 -0.5021 0.8562
vn 0.0908 -0.6318 0.7698
vn 0.6981 -0.6981 0.1592
vn 0.7535 -0.5476 0.3638
vn 0.6799 -0.6799 0.2745
vn 0.5476 -0.7535 0.3638
vn 0.7535 -0.3638 0.5476
vn 0.6981 -0.1592 0.6981
vn 0.6799 -0.2745 0.6799
vn 0.5476 -0.3638 0.7535
vn 0.5007 -0.7062 0.5007
vn 0.7062 -0.5007 0.5007
vn 0.5774 -0.5774 0.5774
vn 0.5007 -0.5007 0.7062
vn 0.3638 -0.7535 0.5476
vn 0.3638 -0.5476 0.7535
vn 0.2745 -0.6799 0.6799
vn 0.1592 -0.6981 0.6981
vn 0.6318 -0.7698 0.0908
vn 0.4812 -0.8249 0.2966
vn 0.5021 -0.8562 0.1216
vn 0.4694 -0.8782 0.0918
vn 0.2966 -0.8249 0.4812
vn 0.0908 -0.7698 0.6318
vn 0.1216 -0.8562 0.5021
vn 0.0918 -0.8782 0.4694
vn 0.3118 -0.9427 0.1187
vn 0.3234 -0.8893 0.3234
vn 0.2924 -0.9105 0.2924
vn 0.1187 -0.9427 0.3118
vn 0.2889 -0.9525 0.0958
vn 0.0958 -0.9525 0.2889
vn 0.1031 -0.9893 0.1031
vn 0.0976 -0.9904 0.0976
s 0
f 1//1 2//1 3//1
f 2//2 4//2 5//2
f 3//3 2//3 5//3
f 3//4 5//4 6//4
f 4//5 7//5 8//5
f 7//6 9//6 10//6
f 8//7 7//7 10//7
f 8//8 10//8 11//8
f 6//9 5//9 12//9
f 5//10 4//10 8//10
f 12//11 5//11 8//11
f 12//12 8//12 11//12
f 6//13 12//13 13//13
f 12//14 11//14 14//14
f 13//15 12//15 14//15
f 13//16 14//16 15//16
f 9//17 16//17 17//17
f 16//18 18//18 19//18
f 17//19 16//19 19//19
f 17//20 19//20 20//20
f 18//21 21//21 22//21
f 21//22 23//22 24//22
f 22//23 21//23 24//23
f 22//24 24//24 25//24
f 20//25 19//25 26//25
f 19//26 18//26 22//26
f 26//27 19//27 22//27
f 26//28 22//28 25//28
f 20//29 26//29 27//29
f 26//30 25//30 28//30
f 27//31 26//31 28//31
f 27//32 28//32 29//32
f 15//33 14//33 30//33
f 14//34 11//34 31//34
f 30//35 14//35 31//35
f 30//36 31//36 32//36
f 11//37 10//37 33//37
f 10//38 9//38 17//38
f 33//39 10//39 17//39
f 33//40 17//40 20//40
f 32//41 31//41 34//41
f 31//42 11//42 33//42
f 34//43 31//43 33//43
f 34//44 33//44 20//44
f 32//45 34//45 35//45
f 34//46 20//46 27//46
f 35//47 34//47 27//47
f 35//48 27//48 29//48
f 15//49 30//49 36//49
f 30//50 32//50 37//50
f 36//51 30//51 37//51
f 36//52 37//52 38//52
f 32//53 35//53 39//53
f 35//54 29//54 40//54
f 39//55 35//55 40//55
f 39//56 40//56 41//56
f 38//57 37//57 42//57
f 37//58 32//58 39//58
f 42//59 37//59 39//59
f 42//60 39//60 41//60
f 38//61 42//61 43//61
f 42//62 41//62 44//62
f 43//63 42//63 44//63
f 43//64 44//64 45//64
f 46//65 47//65 48//65
f 47//66 49//66 50//66
f 48//67 47//67 50//67
f 48//68 50//68 51//68
f 49//69 52//69 53//69
f 52//70 54//70 55//70
f 53//71 52//71 55//71
f 53//72 55//72 56//72
f 51//73 50//73 57//73
f 50//74 49//74 53//74
f 57//75 50//75 53//75
f 57//76 53//76 56//76
f 51//77 57//77 58//77
f 57//78 56//78 59//78
f 58//79 57//79 59//79
f 58//80 59//80 60//80
f 54//81 61//81 62//81
f 61//82 63//82 64//82
f 62//83 61//83 64//83
f 62//84 64//84 65//84
f 63//85 66//85 67//85
f 66//86 23//86 21//86
f 67//87 66//87 21//87
f 67//88 21//88 18//88
f 65//89 64//89 68//89
f 64//90 63//90 67//90
f 68//91 64//91 67//91
f 68//92 67//92 18//92
f 65//93 68//93 69//93
f 68//94 18//94 16//94
f 69//95 68//95 16//95
f 69//96 16//96 9//96
f 60//97 59//97 70//97
f 59//98 56//98 71//98
f 70//99 59//99 71//99
f 70//100 71//100 72//100
f 56//101 55//101 73//101
f 55//102 54//102 62//102
f 73//103 55//103 62//103
f 73//104 62//104 65//104
f 72//105 71//105 74//105
f 71//106 56//106 73//106
f 74//107 71//107 73//107
f 74//108 73//108 65//108
f 72//109 74//109 75//109
f 74//110 65//110 69//110
f 75//111 74//111 69//111
f 75//112 69//112 9//112
f 60//113 70//113 76//113
f 70//114 72//114 77//114
f 76//115 70//115 77//115
f 76//116 77//116 78//116
f 72//117 75//117 79//117
f 75//118 9//118 7//118
f 79//119 75//119 7//119
f 79//120 7//120 4//120
f 78//121 77//121 80//121
f 77//122 72//122 79//122
f 80//123 77//123 79//123
f 80//124 79//124 4//124
f 78//125 80//125 81//125
f 80//126 4//126 2//126
f 81//127 80//127 2//127
f 81//128 2//128 1//128
f 82//129 83//129 84//129
f 83//130 85//130 86//130
f 84//131 83//131 86//131
f 84//132 86//132 87//132
f 85//133 88//133 89//133
f 88//134 90//134 91//134
f 89//135 88//135 91//135
f 89//136 91//136 92//136
f 87//137 86//137 93//137
f 86//138 85//138 89//138
f 93//139 86//139 89//139
f 93//140 89//140 92//140
f 87//141 93//141 94//141
f 93//142 92//142 95//142
f 94//143 93//143 95//143
f 94//144 95//144 96//144
f 90//145 97//145 98//145
f 97//146 99//146 100//146
f 98//147 97//147 100//147
f 98//148 100//148 101//148
f 99//149 102//149 103//149
f 102//150 23//150 66//150
f 103//151 102//151 66//151
f 103//152 66//152 63//152
f 101//153 100//153 104//153
f 100//154 99//154 103//154
f 104//155 100//155 103//155
f 104//156 103//156 63//156
f 101//157 104//157 105//157
f 104//158 63//158 61//158
f 105//159 104//159 61//159
f 105//160 61//160 54//160
f 96//161 95//161 106//161
f 95//162 92//162 107//162
f 106//163 95//163 107//163
f 106//164 107//164 108//164
f 92//165 91//165 109//165
f 91//166 90//166 98//166
f 109//167 91//167 98//167
f 109//168 98//168 101//168
f 108//169 107//169 110//169
f 107//170 92//170 109//170
f 110//171 107//171 109//171
f 110//172 109//172 101//172
f 108//173 110//173 111//173
f 110//174 101//174 105//174
f 111//175 110//175 105//175
f 111//176 105//176 54//176
f 96//177 106//177 112//177
f 106//178 108//178 113//178
f 112//179 106//179 113//179
f 112//180 113//180 114//180
f 108//181 111//181 115//181
f 111//182 54//182 52//182
f 115//183 111//183 52//183
f 115//184 52//184 49//184
f 114//185 113//185 116//185
f 113//186 108//186 115//186
f 116//187 113//187 115//187
f 116//188 115//188 49//188
f 114//189 116//189 117//189
f 116//190 49//190 47//190
f 117//191 116//191 47//191
f 117//192 47//192 46//192
f 45//193 44//193 118//193
f 44//194 41//194 119//194
f 118//195 44//195 119//195
f 118//196 119//196 120//196
f 41//197 40//197 121//197
f 40//198 29//198 122//198
f 121//199 40//199 122//199
f 121//200 122//200 123//200
f 120//201 119//201 124//201
f 119//202 41//202 121//202
f 124//203 119//203 121//203
f 124//204 121//204 123//204
f 120//205 124//205 125//205
f 124//206 123//206 126//206
f 125//207 124//207 126//207
f 125//208 126//208 127//208
f 29//209 28//209 128//209
f 28//210 25//210 129//210
f 128//211 28//211 129//211
f 128//212 129//212 130//212
f 25//213 24//213 131//213
f 24//214 23//214 102//214
f 131//215 24//215 102//215
f 131//216 102//216 99//216
f 130//217 129//217 132//217
f 129//218 25//218 131//218
f 132//219 129//219 131//219
f 132//220 131//220 99//220
f 130//221 132//221 133//221
f 132//222 99//222 97//222
f 133//223 132//223 97//223
f 133//224 97//224 90//224
f 127//225 126//225 134//225
f 126//226 123//226 135//226
f 134//227 126//227 135//227
f 134//228 135//228 136//228
f 123//229 122//229 137//229
f 122//230 29//230 128//230
f 137//231 122//231 128//231
f 137//232 128//232 130//232
f 136//233 135//233 138//233
f 135//234 123//234 137//234
f 138//235 135//235 137//235
f 138//236 137//236 130//236
f 136//237 138//237 139//237
f 138//238 130//238 133//238
f 139//239 138//239 133//239
f 139//240 133//240 90//240
f 127//241 134//241 140//241
f 134//242 136//242 141//242
f 140//243 134//243 141//243
f 140//244 141//244 142//244
f 136//245 139//245 143//245
f 139//246 90//246 88//246
f 143//247 139//247 88//247
f 143//248 88//248 85//248
f 142//249 141//249 144//249
f 141//250 136//250 143//250
f 144//251 141//251 143//251
f 144//252 143//252 85//252
f 142//253 144//253 145//253
f 144//254 85//254 83//254
f 145//255 144//255 83//255
f 145//256 83//256 82//256
