# Blender 4.0.2
# www.blender.org
mtllib pacmanUpper.mtl
o Cube.001
v -0.598525 -0.508525 0.888525
v -0.598525 -0.211475 0.888525
v -0.598525 -0.508525 0.591475
v -0.598525 -0.211475 0.591475
v -0.301475 -0.508525 0.888525
v -0.301475 -0.211475 0.888525
v -0.301475 -0.508525 0.591475
v -0.301475 -0.211475 0.591475
v 0.000000 1.000000 -0.000000
v 0.000000 0.980785 0.195090
v 0.195090 0.980785 -0.000000
v 0.000000 0.923880 0.382683
v 0.198757 0.959683 0.198757
v 0.382683 0.923880 -0.000000
v 0.000000 0.831470 0.555570
v 0.208847 0.890320 0.404615
v 0.000000 0.707107 0.707107
v 0.211325 0.788675 0.577350
v 0.408248 0.816497 0.408248
v 0.404615 0.890320 0.208847
v 0.555570 0.831470 -0.000000
v 0.577350 0.788675 0.211325
v 0.707107 0.707107 -0.000000
v 0.000000 0.555570 0.831470
v 0.211325 0.577350 0.788675
v 0.000000 0.382683 0.923880
v 0.208847 0.404615 0.890320
v 0.408248 0.408248 0.816497
v 0.000000 0.195090 0.980785
v 0.198757 0.198757 0.959683
v 0.000000 0.000000 1.000000
v 0.195090 0.000000 0.980785
v 0.382683 0.000000 0.923880
v 0.404615 0.208847 0.890320
v 0.577350 0.211325 0.788675
v 0.555570 0.000000 0.831470
v 0.707107 0.000000 0.707107
v 0.788675 0.577350 0.211325
v 0.639602 0.639602 0.426401
v 0.816497 0.408248 0.408248
v 0.426401 0.639602 0.639602
v 0.639602 0.426401 0.639602
v 0.788675 0.211325 0.577350
v 0.831470 0.555570 -0.000000
v 0.890320 0.404615 0.208847
v 0.923880 0.382683 0.000000
v 0.890320 0.208847 0.404615
v 0.831470 0.000000 0.555570
v 0.923880 0.000000 0.382683
v 0.959683 0.198757 0.198757
v 0.980785 0.195090 0.000000
v 0.980785 -0.000000 0.195090
v 1.000000 -0.000000 0.000000
v -1.000000 -0.000000 0.000000
v -0.980785 -0.000000 0.195090
v -0.980785 0.195090 0.000000
v -0.923880 0.000000 0.382683
v -0.959683 0.198757 0.198757
v -0.923880 0.382683 0.000000
v -0.831470 0.000000 0.555570
v -0.890320 0.208847 0.404615
v -0.707107 0.000000 0.707107
v -0.788675 0.211325 0.577350
v -0.816497 0.408248 0.408248
v -0.890320 0.404615 0.208847
v -0.831470 0.555570 -0.000000
v -0.788675 0.577350 0.211325
v -0.707107 0.707107 -0.000000
v -0.555570 0.000000 0.831470
v -0.577350 0.211325 0.788675
v -0.382683 0.000000 0.923880
v -0.404615 0.208847 0.890320
v -0.408248 0.408248 0.816497
v -0.195090 0.000000 0.980785
v -0.198757 0.198757 0.959683
v -0.208847 0.404615 0.890320
v -0.211325 0.577350 0.788675
v -0.577350 0.788675 0.211325
v -0.639602 0.639602 0.426401
v -0.408248 0.816497 0.408248
v -0.639602 0.426401 0.639602
v -0.426401 0.639602 0.639602
v -0.211325 0.788675 0.577350
v -0.555570 0.831470 -0.000000
v -0.404615 0.890320 0.208847
v -0.382683 0.923880 -0.000000
v -0.208847 0.890320 0.404615
v -0.198757 0.959683 0.198757
v -0.195090 0.980785 -0.000000
v 0.000000 -1.000000 0.000000
v 0.000000 -0.980785 0.195090
v -0.195090 -0.980785 0.000000
v 0.000000 -0.923880 0.382683
v -0.198757 -0.959683 0.198757
v -0.382683 -0.923880 0.000000
v 0.000000 -0.831470 0.555570
v -0.208847 -0.890320 0.404615
v 0.000000 -0.707107 0.707107
v -0.211325 -0.788675 0.577350
v -0.408248 -0.816497 0.408248
v -0.404615 -0.890320 0.208847
v -0.555570 -0.831470 0.000000
v -0.577350 -0.788675 0.211325
v -0.707107 -0.707107 0.000000
v 0.000000 -0.555570 0.831470
v -0.211325 -0.577350 0.788675
v 0.000000 -0.382683 0.923880
v -0.208847 -0.404615 0.890320
v -0.408248 -0.408248 0.816497
v 0.000000 -0.195090 0.980785
v -0.198757 -0.198757 0.959683
v -0.404615 -0.208847 0.890320
v -0.577350 -0.211325 0.788675
v -0.788675 -0.577350 0.211325
v -0.639602 -0.639602 0.426401
v -0.816497 -0.408248 0.408248
v -0.426401 -0.639602 0.639602
v -0.639602 -0.426401 0.639602
v -0.788675 -0.211325 0.577350
v -0.831470 -0.555570 0.000000
v -0.890320 -0.404615 0.208847
v -0.923880 -0.382683 0.000000
v -0.890320 -0.208847 0.404615
v -0.959683 -0.198757 0.198757
v -0.980785 -0.195090 0.000000
v 0.980785 -0.195090 0.000000
v 0.959683 -0.198757 0.198757
v 0.923880 -0.382683 0.000000
v 0.890320 -0.208847 0.404615
v 0.788675 -0.211325 0.577350
v 0.816497 -0.408248 0.408248
v 0.890320 -0.404615 0.208847
v 0.831470 -0.555570 0.000000
v 0.788675 -0.577350 0.211325
v 0.707107 -0.707107 0.000000
v 0.577350 -0.211325 0.788675
v 0.404615 -0.208847 0.890320
v 0.408248 -0.408248 0.816497
v 0.198757 -0.198757 0.959683
v 0.208847 -0.404615 0.890320
v 0.211325 -0.577350 0.788675
v 0.577350 -0.788675 0.211325
v 0.639602 -0.639602 0.426401
v 0.408248 -0.816497 0.408248
v 0.639602 -0.426401 0.639602
v 0.426401 -0.639602 0.639602
v 0.211325 -0.788675 0.577350
v 0.555570 -0.831470 0.000000
v 0.404615 -0.890320 0.208847
v 0.382683 -0.923880 0.000000
v 0.208847 -0.890320 0.404615
v 0.198757 -0.959683 0.198757
v 0.195090 -0.980785 0.000000
v -0.262464 0.597536 0.572464
v -0.262464 0.282464 0.572464
v -0.262464 0.597536 0.887536
v -0.262464 0.282464 0.887536
v -0.577536 0.597536 0.572464
v -0.577536 0.282464 0.572464
v -0.577536 0.597536 0.887536
v -0.577536 0.282464 0.887536
vn -1.0000 -0.0000 -0.0000
vn -0.0000 -0.0000 -1.0000
vn 1.0000 -0.0000 -0.0000
vn -0.0000 -0.0000 1.0000
vn -0.0000 -1.0000 -0.0000
vn -0.0000 1.0000 -0.0000
vn 0.0976 0.9904 0.0976
vn 0.0958 0.9525 0.2889
vn 0.1031 0.9893 0.1031
vn 0.2889 0.9525 0.0958
vn 0.0918 0.8782 0.4694
vn 0.0908 0.7698 0.6318
vn 0.1216 0.8562 0.5021
vn 0.2966 0.8249 0.4812
vn 0.3118 0.9427 0.1187
vn 0.1187 0.9427 0.3118
vn 0.2924 0.9105 0.2924
vn 0.3234 0.8893 0.3234
vn 0.4694 0.8782 0.0918
vn 0.4812 0.8249 0.2966
vn 0.5021 0.8562 0.1216
vn 0.6318 0.7698 0.0908
vn 0.0908 0.6318 0.7698
vn 0.0918 0.4694 0.8782
vn 0.1216 0.5021 0.8562
vn 0.2966 0.4812 0.8249
vn 0.0958 0.2889 0.9525
vn 0.0976 0.0976 0.9904
vn 0.1031 0.1031 0.9893
vn 0.2889 0.0958 0.9525
vn 0.3234 0.3234 0.8893
vn 0.1187 0.3118 0.9427
vn 0.2924 0.2924 0.9105
vn 0.3118 0.1187 0.9427
vn 0.4812 0.2966 0.8249
vn 0.4694 0.0918 0.8782
vn 0.5021 0.1216 0.8562
vn 0.6318 0.0908 0.7698
vn 0.6981 0.6981 0.1592
vn 0.5476 0.7535 0.3638
vn 0.6799 0.6799 0.2745
vn 0.7535 0.5476 0.3638
vn 0.3638 0.7535 0.5476
vn 0.1592 0.6981 0.6981
vn 0.2745 0.6799 0.6799
vn 0.3638 0.5476 0.7535
vn 0.7062 0.5007 0.5007
vn 0.5007 0.7062 0.5007
vn 0.5774 0.5774 0.5773
vn 0.5007 0.5007 0.7062
vn 0.7535 0.3638 0.5476
vn 0.5476 0.3638 0.7535
vn 0.6799 0.2745 0.6799
vn 0.6981 0.1592 0.6981
vn 0.7698 0.6318 0.0908
vn 0.8249 0.4812 0.2966
vn 0.8562 0.5021 0.1216
vn 0.8782 0.4694 0.0918
vn 0.8249 0.2966 0.4812
vn 0.7698 0.0908 0.6318
vn 0.8562 0.1216 0.5021
vn 0.8782 0.0918 0.4694
vn 0.9427 0.3118 0.1187
vn 0.8893 0.3234 0.3234
vn 0.9105 0.2924 0.2924
vn 0.9427 0.1187 0.3118
vn 0.9525 0.2889 0.0958
vn 0.9525 0.0958 0.2889
vn 0.9893 0.1031 0.1031
vn 0.9904 0.0976 0.0976
vn -0.9904 0.0976 0.0976
vn -0.9525 0.0958 0.2889
vn -0.9893 0.1031 0.1031
vn -0.9525 0.2889 0.0958
vn -0.8782 0.0918 0.4694
vn -0.7698 0.0908 0.6318
vn -0.8562 0.1216 0.5021
vn -0.8249 0.2966 0.4812
vn -0.9427 0.3118 0.1187
vn -0.9427 0.1187 0.3118
vn -0.9105 0.2924 0.2924
vn -0.8893 0.3234 0.3234
vn -0.8782 0.4694 0.0918
vn -0.8249 0.4812 0.2966
vn -0.8562 0.5021 0.1216
vn -0.7698 0.6318 0.0908
vn -0.6318 0.0908 0.7698
vn -0.4694 0.0918 0.8782
vn -0.5021 0.1216 0.8562
vn -0.4812 0.2966 0.8249
vn -0.2889 0.0958 0.9525
vn -0.0976 0.0976 0.9904
vn -0.1031 0.1031 0.9893
vn -0.0958 0.2889 0.9525
vn -0.3234 0.3234 0.8893
vn -0.3118 0.1187 0.9427
vn -0.2924 0.2924 0.9105
vn -0.1187 0.3118 0.9427
vn -0.2966 0.4812 0.8249
vn -0.0918 0.4694 0.8782
vn -0.1216 0.5021 0.8562
vn -0.0908 0.6318 0.7698
vn -0.6981 0.6981 0.1592
vn -0.7535 0.5476 0.3638
vn -0.6799 0.6799 0.2745
vn -0.5476 0.7535 0.3638
vn -0.7535 0.3638 0.5476
vn -0.6981 0.1592 0.6981
vn -0.6799 0.2745 0.6799
vn -0.5476 0.3638 0.7535
vn -0.5007 0.7062 0.5007
vn -0.7062 0.5007 0.5007
vn -0.5774 0.5774 0.5774
vn -0.5007 0.5007 0.7062
vn -0.3638 0.7535 0.5476
vn -0.3638 0.5476 0.7535
vn -0.2745 0.6799 0.6799
vn -0.1592 0.6981 0.6981
vn -0.6318 0.7698 0.0908
vn -0.4812 0.8249 0.2966
vn -0.5021 0.8562 0.1216
vn -0.4694 0.8782 0.0918
vn -0.2966 0.8249 0.4812
vn -0.0908 0.7698 0.6318
vn -0.1216 0.8562 0.5021
vn -0.0918 0.8782 0.4694
vn -0.3118 0.9427 0.1187
vn -0.3234 0.8893 0.3234
vn -0.2924 0.9105 0.2924
vn -0.1187 0.9427 0.3118
vn -0.2889 0.9525 0.0958
vn -0.0958 0.9525 0.2889
vn -0.1031 0.9893 0.1031
vn -0.0976 0.9904 0.0976
vn -0.0976 -0.9904 0.0976
vn -0.0958 -0.9525 0.2889
vn -0.1031 -0.9893 0.1031
vn -0.2889 -0.9525 0.0958
vn -0.0918 -0.8782 0.4694
vn -0.0908 -0.7698 0.6318
vn -0.1216 -0.8562 0.5021
vn -0.2966 -0.8249 0.4812
vn -0.3118 -0.9427 0.1187
vn -0.1187 -0.9427 0.3118
vn -0.2924 -0.9105 0.2924
vn -0.3234 -0.8893 0.3234
vn -0.4694 -0.8782 0.0918
vn -0.4812 -0.8249 0.2966
vn -0.5021 -0.8562 0.1216
vn -0.6318 -0.7698 0.0908
vn -0.0908 -0.6318 0.7698
vn -0.0918 -0.4694 0.8782
vn -0.1216 -0.5021 0.8562
vn -0.2966 -0.4812 0.8249
vn -0.0958 -0.2889 0.9525
vn -0.0976 -0.0976 0.9904
vn -0.1031 -0.1031 0.9893
vn -0.2889 -0.0958 0.9525
vn -0.3234 -0.3234 0.8893
vn -0.1187 -0.3118 0.9427
vn -0.2924 -0.2924 0.9105
vn -0.3118 -0.1187 0.9427
vn -0.4812 -0.2966 0.8249
vn -0.4694 -0.0918 0.8782
vn -0.5021 -0.1216 0.8562
vn -0.6318 -0.0908 0.7698
vn -0.6981 -0.6981 0.1592
vn -0.5476 -0.7535 0.3638
vn -0.6799 -0.6799 0.2745
vn -0.7535 -0.5476 0.3638
vn -0.3638 -0.7535 0.5476
vn -0.1592 -0.6981 0.6981
vn -0.2745 -0.6799 0.6799
vn -0.3638 -0.5476 0.7535
vn -0.7062 -0.5007 0.5007
vn -0.5007 -0.7062 0.5007
vn -0.5774 -0.5774 0.5774
vn -0.5007 -0.5007 0.7062
vn -0.7535 -0.3638 0.5476
vn -0.5476 -0.3638 0.7535
vn -0.6799 -0.2745 0.6799
vn -0.6981 -0.1592 0.6981
vn -0.7698 -0.6318 0.0908
vn -0.8249 -0.4812 0.2966
vn -0.8562 -0.5021 0.1216
vn -0.8782 -0.4694 0.0918
vn -0.8249 -0.2966 0.4812
vn -0.7698 -0.0908 0.6318
vn -0.8562 -0.1216 0.5021
vn -0.8782 -0.0918 0.4694
vn -0.9427 -0.3118 0.1187
vn -0.8893 -0.3234 0.3234
vn -0.9105 -0.2924 0.2924
vn -0.9427 -0.1187 0.3118
vn -0.9525 -0.2889 0.0958
vn -0.9525 -0.0958 0.2889
vn -0.9893 -0.1031 0.1031
vn -0.9904 -0.0976 0.0976
vn 0.9904 -0.0976 0.0976
vn 0.9525 -0.0958 0.2889
vn 0.9893 -0.1031 0.1031
vn 0.9525 -0.2889 0.0958
vn 0.8782 -0.0918 0.4694
vn 0.7698 -0.0908 0.6318
vn 0.8562 -0.1216 0.5021
vn 0.8249 -0.2966 0.4812
vn 0.9427 -0.3118 0.1187
vn 0.9427 -0.1187 0.3118
vn 0.9105 -0.2924 0.2924
vn 0.8893 -0.3234 0.3234
vn 0.8782 -0.4694 0.0918
vn 0.8249 -0.4812 0.2966
vn 0.8562 -0.5021 0.1216
vn 0.7698 -0.6318 0.0908
vn 0.6318 -0.0908 0.7698
vn 0.4694 -0.0918 0.8782
vn 0.5021 -0.1216 0.8562
vn 0.4812 -0.2966 0.8249
vn 0.2889 -0.0958 0.9525
vn 0.0976 -0.0976 0.9904
vn 0.1031 -0.1031 0.9893
vn 0.0958 -0.2889 0.9525
vn 0.3234 -0.3234 0.8893
vn 0.3118 -0.1187 0.9427
vn 0.2924 -0.2924 0.9105
vn 0.1187 -0.3118 0.9427
vn 0.2966 -0.4812 0.8249
vn 0.0918 -0.4694 0.8782
vn 0.1216 -0.5021 0.8562
vn 0.0908 -0.6318 0.7698
vn 0.6981 -0.6981 0.1592
vn 0.7535 -0.5476 0.3638
vn 0.6799 -0.6799 0.2745
vn 0.5476 -0.7535 0.3638
vn 0.7535 -0.3638 0.5476
vn 0.6981 -0.1592 0.6981
vn 0.6799 -0.2745 0.6799
vn 0.5476 -0.3638 0.7535
vn 0.5007 -0.7062 0.5007
vn 0.7062 -0.5007 0.5007
vn 0.5774 -0.5774 0.5774
vn 0.5007 -0.5007 0.7062
vn 0.3638 -0.7535 0.5476
vn 0.3638 -0.5476 0.7535
vn 0.2745 -0.6799 0.6799
vn 0.1592 -0.6981 0.6981
vn 0.6318 -0.7698 0.0908
vn 0.4812 -0.8249 0.2966
vn 0.5021 -0.8562 0.1216
vn 0.4694 -0.8782 0.0918
vn 0.2966 -0.8249 0.4812
vn 0.0908 -0.7698 0.6318
vn 0.1216 -0.8562 0.5021
vn 0.0918 -0.8782 0.4694
vn 0.3118 -0.9427 0.1187
vn 0.3234 -0.8893 0.3234
vn 0.2924 -0.9105 0.2924
vn 0.1187 -0.9427 0.3118
vn 0.2889 -0.9525 0.0958
vn 0.0958 -0.9525 0.2889
vn 0.1031 -0.9893 0.1031
vn 0.0976 -0.9904 0.0976
vt 0.625000 0.000000
vt 0.375000 0.250000
vt 0.375000 0.000000
vt 0.625000 0.250000
vt 0.375000 0.500000
vt 0.625000 0.500000
vt 0.375000 0.750000
vt 0.625000 0.750000
vt 0.375000 1.000000
vt 0.125000 0.750000
vt 0.125000 0.500000
vt 0.875000 0.500000
vt 0.000000 0.000000
vt 0.625000 1.000000
vt 0.875000 0.750000
s 0
f 2/1/1 3/2/1 1/3/1
f 4/4/2 7/5/2 3/2/2
f 8/6/3 5/7/3 7/5/3
f 6/8/4 1/9/4 5/7/4
f 7/5/5 1/10/5 3/11/5
f 4/12/6 6/8/6 8/6/6
f 9/13/7 10/13/7 11/13/7
f 10/13/8 12/13/8 13/13/8
f 11/13/9 10/13/9 13/13/9
f 11/13/10 13/13/10 14/13/10
f 12/13/11 15/13/11 16/13/11
f 15/13/12 17/13/12 18/13/12
f 16/13/13 15/13/13 18/13/13
f 16/13/14 18/13/14 19/13/14
f 14/13/15 13/13/15 20/13/15
f 13/13/16 12/13/16 16/13/16
f 20/13/17 13/13/17 16/13/17
f 20/13/18 16/13/18 19/13/18
f 14/13/19 20/13/19 21/13/19
f 20/13/20 19/13/20 22/13/20
f 21/13/21 20/13/21 22/13/21
f 21/13/22 22/13/22 23/13/22
f 17/13/23 24/13/23 25/13/23
f 24/13/24 26/13/24 27/13/24
f 25/13/25 24/13/25 27/13/25
f 25/13/26 27/13/26 28/13/26
f 26/13/27 29/13/27 30/13/27
f 29/13/28 31/13/28 32/13/28
f 30/13/29 29/13/29 32/13/29
f 30/13/30 32/13/30 33/13/30
f 28/13/31 27/13/31 34/13/31
f 27/13/32 26/13/32 30/13/32
f 34/13/33 27/13/33 30/13/33
f 34/13/34 30/13/34 33/13/34
f 28/13/35 34/13/35 35/13/35
f 34/13/36 33/13/36 36/13/36
f 35/13/37 34/13/37 36/13/37
f 35/13/38 36/13/38 37/13/38
f 23/13/39 22/13/39 38/13/39
f 22/13/40 19/13/40 39/13/40
f 38/13/41 22/13/41 39/13/41
f 38/13/42 39/13/42 40/13/42
f 19/13/43 18/13/43 41/13/43
f 18/13/44 17/13/44 25/13/44
f 41/13/45 18/13/45 25/13/45
f 41/13/46 25/13/46 28/13/46
f 40/13/47 39/13/47 42/13/47
f 39/13/48 19/13/48 41/13/48
f 42/13/49 39/13/49 41/13/49
f 42/13/50 41/13/50 28/13/50
f 40/13/51 42/13/51 43/13/51
f 42/13/52 28/13/52 35/13/52
f 43/13/53 42/13/53 35/13/53
f 43/13/54 35/13/54 37/13/54
f 23/13/55 38/13/55 44/13/55
f 38/13/56 40/13/56 45/13/56
f 44/13/57 38/13/57 45/13/57
f 44/13/58 45/13/58 46/13/58
f 40/13/59 43/13/59 47/13/59
f 43/13/60 37/13/60 48/13/60
f 47/13/61 43/13/61 48/13/61
f 47/13/62 48/13/62 49/13/62
f 46/13/63 45/13/63 50/13/63
f 45/13/64 40/13/64 47/13/64
f 50/13/65 45/13/65 47/13/65
f 50/13/66 47/13/66 49/13/66
f 46/13/67 50/13/67 51/13/67
f 50/13/68 49/13/68 52/13/68
f 51/13/69 50/13/69 52/13/69
f 51/13/70 52/13/70 53/13/70
f 54/13/71 55/13/71 56/13/71
f 55/13/72 57/13/72 58/13/72
f 56/13/73 55/13/73 58/13/73
f 56/13/74 58/13/74 59/13/74
f 57/13/75 60/13/75 61/13/75
f 60/13/76 62/13/76 63/13/76
f 61/13/77 60/13/77 63/13/77
f 61/13/78 63/13/78 64/13/78
f 59/13/79 58/13/79 65/13/79
f 58/13/80 57/13/80 61/13/80
f 65/13/81 58/13/81 61/13/81
f 65/13/82 61/13/82 64/13/82
f 59/13/83 65/13/83 66/13/83
f 65/13/84 64/13/84 67/13/84
f 66/13/85 65/13/85 67/13/85
f 66/13/86 67/13/86 68/13/86
f 62/13/87 69/13/87 70/13/87
f 69/13/88 71/13/88 72/13/88
f 70/13/89 69/13/89 72/13/89
f 70/13/90 72/13/90 73/13/90
f 71/13/91 74/13/91 75/13/91
f 74/13/92 31/13/92 29/13/92
f 75/13/93 74/13/93 29/13/93
f 75/13/94 29/13/94 26/13/94
f 73/13/95 72/13/95 76/13/95
f 72/13/96 71/13/96 75/13/96
f 76/13/97 72/13/97 75/13/97
f 76/13/98 75/13/98 26/13/98
f 73/13/99 76/13/99 77/13/99
f 76/13/100 26/13/100 24/13/100
f 77/13/101 76/13/101 24/13/101
f 77/13/102 24/13/102 17/13/102
f 68/13/103 67/13/103 78/13/103
f 67/13/104 64/13/104 79/13/104
f 78/13/105 67/13/105 79/13/105
f 78/13/106 79/13/106 80/13/106
f 64/13/107 63/13/107 81/13/107
f 63/13/108 62/13/108 70/13/108
f 81/13/109 63/13/109 70/13/109
f 81/13/110 70/13/110 73/13/110
f 80/13/111 79/13/111 82/13/111
f 79/13/112 64/13/112 81/13/112
f 82/13/113 79/13/113 81/13/113
f 82/13/114 81/13/114 73/13/114
f 80/13/115 82/13/115 83/13/115
f 82/13/116 73/13/116 77/13/116
f 83/13/117 82/13/117 77/13/117
f 83/13/118 77/13/118 17/13/118
f 68/13/119 78/13/119 84/13/119
f 78/13/120 80/13/120 85/13/120
f 84/13/121 78/13/121 85/13/121
f 84/13/122 85/13/122 86/13/122
f 80/13/123 83/13/123 87/13/123
f 83/13/124 17/13/124 15/13/124
f 87/13/125 83/13/125 15/13/125
f 87/13/126 15/13/126 12/13/126
f 86/13/127 85/13/127 88/13/127
f 85/13/128 80/13/128 87/13/128
f 88/13/129 85/13/129 87/13/129
f 88/13/130 87/13/130 12/13/130
f 86/13/131 88/13/131 89/13/131
f 88/13/132 12/13/132 10/13/132
f 89/13/133 88/13/133 10/13/133
f 89/13/134 10/13/134 9/13/134
f 90/13/135 91/13/135 92/13/135
f 91/13/136 93/13/136 94/13/136
f 92/13/137 91/13/137 94/13/137
f 92/13/138 94/13/138 95/13/138
f 93/13/139 96/13/139 97/13/139
f 96/13/140 98/13/140 99/13/140
f 97/13/141 96/13/141 99/13/141
f 97/13/142 99/13/142 100/13/142
f 95/13/143 94/13/143 101/13/143
f 94/13/144 93/13/144 97/13/144
f 101/13/145 94/13/145 97/13/145
f 101/13/146 97/13/146 100/13/146
f 95/13/147 101/13/147 102/13/147
f 101/13/148 100/13/148 103/13/148
f 102/13/149 101/13/149 103/13/149
f 102/13/150 103/13/150 104/13/150
f 98/13/151 105/13/151 106/13/151
f 105/13/152 107/13/152 108/13/152
f 106/13/153 105/13/153 108/13/153
f 106/13/154 108/13/154 109/13/154
f 107/13/155 110/13/155 111/13/155
f 110/13/156 31/13/156 74/13/156
f 111/13/157 110/13/157 74/13/157
f 111/13/158 74/13/158 71/13/158
f 109/13/159 108/13/159 112/13/159
f 108/13/160 107/13/160 111/13/160
f 112/13/161 108/13/161 111/13/161
f 112/13/162 111/13/162 71/13/162
f 109/13/163 112/13/163 113/13/163
f 112/13/164 71/13/164 69/13/164
f 113/13/165 112/13/165 69/13/165
f 113/13/166 69/13/166 62/13/166
f 104/13/167 103/13/167 114/13/167
f 103/13/168 100/13/168 115/13/168
f 114/13/169 103/13/169 115/13/169
f 114/13/170 115/13/170 116/13/170
f 100/13/171 99/13/171 117/13/171
f 99/13/172 98/13/172 106/13/172
f 117/13/173 99/13/173 106/13/173
f 117/13/174 106/13/174 109/13/174
f 116/13/175 115/13/175 118/13/175
f 115/13/176 100/13/176 117/13/176
f 118/13/177 115/13/177 117/13/177
f 118/13/178 117/13/178 109/13/178
f 116/13/179 118/13/179 119/13/179
f 118/13/180 109/13/180 113/13/180
f 119/13/181 118/13/181 113/13/181
f 119/13/182 113/13/182 62/13/182
f 104/13/183 114/13/183 120/13/183
f 114/13/184 116/13/184 121/13/184
f 120/13/185 114/13/185 121/13/185
f 120/13/186 121/13/186 122/13/186
f 116/13/187 119/13/187 123/13/187
f 119/13/188 62/13/188 60/13/188
f 123/13/189 119/13/189 60/13/189
f 123/13/190 60/13/190 57/13/190
f 122/13/191 121/13/191 124/13/191
f 121/13/192 116/13/192 123/13/192
f 124/13/193 121/13/193 123/13/193
f 124/13/194 123/13/194 57/13/194
f 122/13/195 124/13/195 125/13/195
f 124/13/196 57/13/196 55/13/196
f 125/13/197 124/13/197 55/13/197
f 125/13/198 55/13/198 54/13/198
f 53/13/199 52/13/199 126/13/199
f 52/13/200 49/13/200 127/13/200
f 126/13/201 52/13/201 127/13/201
f 126/13/202 127/13/202 128/13/202
f 49/13/203 48/13/203 129/13/203
f 48/13/204 37/13/204 130/13/204
f 129/13/205 48/13/205 130/13/205
f 129/13/206 130/13/206 131/13/206
f 128/13/207 127/13/207 132/13/207
f 127/13/208 49/13/208 129/13/208
f 132/13/209 127/13/209 129/13/209
f 132/13/210 129/13/210 131/13/210
f 128/13/211 132/13/211 133/13/211
f 132/13/212 131/13/212 134/13/212
f 133/13/213 132/13/213 134/13/213
f 133/13/214 134/13/214 135/13/214
f 37/13/215 36/13/215 136/13/215
f 36/13/216 33/13/216 137/13/216
f 136/13/217 36/13/217 137/13/217
f 136/13/218 137/13/218 138/13/218
f 33/13/219 32/13/219 139/13/219
f 32/13/220 31/13/220 110/13/220
f 139/13/221 32/13/221 110/13/221
f 139/13/222 110/13/222 107/13/222
f 138/13/223 137/13/223 140/13/223
f 137/13/224 33/13/224 139/13/224
f 140/13/225 137/13/225 139/13/225
f 140/13/226 139/13/226 107/13/226
f 138/13/227 140/13/227 141/13/227
f 140/13/228 107/13/228 105/13/228
f 141/13/229 140/13/229 105/13/229
f 141/13/230 105/13/230 98/13/230
f 135/13/231 134/13/231 142/13/231
f 134/13/232 131/13/232 143/13/232
f 142/13/233 134/13/233 143/13/233
f 142/13/234 143/13/234 144/13/234
f 131/13/235 130/13/235 145/13/235
f 130/13/236 37/13/236 136/13/236
f 145/13/237 130/13/237 136/13/237
f 145/13/238 136/13/238 138/13/238
f 144/13/239 143/13/239 146/13/239
f 143/13/240 131/13/240 145/13/240
f 146/13/241 143/13/241 145/13/241
f 146/13/242 145/13/242 138/13/242
f 144/13/243 146/13/243 147/13/243
f 146/13/244 138/13/244 141/13/244
f 147/13/245 146/13/245 141/13/245
f 147/13/246 141/13/246 98/13/246
f 135/13/247 142/13/247 148/13/247
f 142/13/248 144/13/248 149/13/248
f 148/13/249 142/13/249 149/13/249
f 148/13/250 149/13/250 150/13/250
f 144/13/251 147/13/251 151/13/251
f 147/13/252 98/13/252 96/13/252
f 151/13/253 147/13/253 96/13/253
f 151/13/254 96/13/254 93/13/254
f 150/13/255 149/13/255 152/13/255
f 149/13/256 144/13/256 151/13/256
f 152/13/257 149/13/257 151/13/257
f 152/13/258 151/13/258 93/13/258
f 150/13/259 152/13/259 153/13/259
f 152/13/260 93/13/260 91/13/260
f 153/13/261 152/13/261 91/13/261
f 153/13/262 91/13/262 90/13/262
f 155/1/1 156/2/1 154/3/1
f 157/4/2 160/5/2 156/2/2
f 161/6/3 158/7/3 160/5/3
f 159/8/4 154/9/4 158/7/4
f 160/5/5 154/10/5 156/11/5
f 157/12/6 159/8/6 161/6/6
f 2/1/1 4/4/1 3/2/1
f 4/4/2 8/6/2 7/5/2
f 8/6/3 6/8/3 5/7/3
f 6/8/4 2/14/4 1/9/4
f 7/5/5 5/7/5 1/10/5
f 4/12/6 2/15/6 6/8/6
f 155/1/1 157/4/1 156/2/1
f 157/4/2 161/6/2 160/5/2
f 161/6/3 159/8/3 158/7/3
f 159/8/4 155/14/4 154/9/4
f 160/5/5 158/7/5 154/10/5
f 157/12/6 155/15/6 159/8/6
